<svg xmlns="http://www.w3.org/2000/svg" xmlns:xlink="http://www.w3.org/1999/xlink" viewBox="36 50 524 726">
  <defs>
    <linearGradient id="kps-logo-grad" x1="-1453.33" y1="10335.66" x2="-1237.71" y2="10180.8" gradientTransform="translate(1665.57 10662.27) scale(1 -1)" gradientUnits="userSpaceOnUse">
      <stop offset="0" stop-color="#3352a0"/>
      <stop offset="1" stop-color="#e73333"/>
    </linearGradient>
  </defs>
  <path fill="url(#kps-logo-grad)" fill-rule="evenodd" d="m93.82,488.84c6.82-37.59,21.87-91.52,54.7-131.07,16.84-20.26,14.57-51.28,11.92-87.17l-.17-2.3c-44.56,10.87-78.27,25.15-100.42,42.59-.26,17.56.98,79.48,26.11,155.8,2.35,7.14,4.96,14.54,7.86,22.15Zm64.97-244.47c-53.02,12.56-92.76,29.99-118.26,51.86l-3.8,3.25-.3,5c-.17,2.99-4.02,74.44,26.79,168.58,28.42,86.79,93.03,209.73,239.38,302.54l6.32,4.02,6.33-4.02c126.47-80.18,191.88-182.85,225.66-265.27h.22s0-.04,0-.04h0c0-.11-.01-.26-.02-.45,5.23-12.81,9.71-25.12,13.52-36.79,30.81-94.14,26.96-165.59,26.79-168.58l-.3-5-3.8-3.25c-22.01-18.87-54.75-34.49-97.41-46.47,1.39-30.02.44-62.09-13.4-91.98-30.94-66.79-83.07-104.91-146.82-107.34h-.94c-63.75,2.44-115.89,40.55-146.83,107.34-12.98,27.98-14.37,58.08-13.14,86.59Zm375.08,214.67c22.98-73.15,24.26-131.21,24.05-148.15-18.47-14.51-45.15-26.91-79.46-36.97l.02-.33c-2.27,34.44-3.81,64.12,11.75,84.61,24.22,31.79,36.96,70.44,43.63,100.85Zm-16.78,46.03c-1.79-20.27-10.17-86.02-45.61-132.61-21.32-27.99-18.93-64.44-16.37-102.98l.02-.32c2.26-34.43,4.59-69.98-10.02-101.46-27.01-58.16-71.66-91.4-125.89-93.62-54.23,2.22-98.92,35.47-125.84,93.62-14.44,31.19-11.88,66.79-9.36,101.19v.16c2.87,39.25,5.57,76.28-17.31,103.81-44.6,53.71-53.32,141.14-54.62,158.36,7.38,15.24,15.9,30.98,25.75,46.96,66.03-110.42,43.4-186.8,43.15-187.58-1.92-6.2,1.5-12.82,7.69-14.79,6.2-1.97,12.82,1.41,14.79,7.61,1.18,3.72,27.98,91.27-51.39,216.65,9.4,13.7,19.81,27.49,31.33,41.22,3.17-55.25,21.41-179.52,121.03-191.02.91-.11,1.86-.12,2.82-.02,103.94,11.89,119.41,146.41,121.5,197.63,13.71-15.83,25.97-31.87,36.93-47.93-79.27-125.3-52.53-212.86-51.34-216.57,2.01-6.2,8.63-9.61,14.87-7.61,6.2,2.01,9.62,8.63,7.65,14.83-.33,1.07-22.73,77.28,43.03,187.39,15.13-24.72,27.34-49.26,37.19-72.9Zm-110.54,166.91c-.77-1.63-1.18-3.46-1.13-5.4.04-1.79,3.6-179.38-99.5-192.72-103.23,13.34-99.54,190.89-99.5,192.72,0,.13,0,.25,0,.38,28.19,29.53,61.98,58.28,102.46,84.66,38.06-24.78,70.33-51.71,97.67-79.64Zm-25.28-357.76c-7.51,3.41-15.01,5.16-22.35,6.87-3.51.82-6.99,1.63-10.42,2.61-3.43.96-6.89,1.8-10.35,2.63h0c-4.21,1.01-8.42,2.02-12.55,3.27-8.55,2.56-16.75,2.14-24.78-1.28-15.68-6.71-32.13-10.47-48.84-13.42-.31-.06-.64-.1-.98-.14h0c-1.22-.15-2.45-.3-2.78-1.61-.49-1.82.92-2.5,2.2-3.11h0c.28-.13.55-.26.79-.4l2.87-1.63h0s0,0,0,0h0c13.95-7.92,27.88-15.82,41.95-23.5,13.38-7.31,26.49-7.05,39.36,1.8,14.44,10.04,29.61,19.1,45.89,27.9Zm-119.82,12.01c14.02,2.86,26.54,6.15,38.24,11.71,10.04,4.74,19.57,5.13,29.74.13,8.07-3.93,16.88-5.58,25.62-7.22,2.09-.39,4.19-.78,6.26-1.2,1.12,1.72.15,2.46-.75,3.13-.13.1-.25.19-.37.29-15.13,12.52-29.61,25.77-43.42,39.74-2.14,2.18-3.84,2.82-6.02.21-10.65-12.79-23.29-23.51-35.9-34.22-3.78-3.2-7.55-6.41-11.28-9.67-.21-.24-.42-.53-.74-.98h0c-.31-.45-.74-1.05-1.4-1.92Zm129.31-95.38c-2.18,0-4.32-1.11-5.51-3.12-3.72-6.15-10.13-9.87-17.22-9.87s-13.5,3.67-17.22,9.87c-1.84,3.03-5.77,4.02-8.8,2.18-3.03-1.84-4.02-5.77-2.18-8.8,6.03-10.08,16.58-16.07,28.2-16.07s22.18,6.03,28.2,16.07c1.84,3.03.85,6.97-2.18,8.8-1.07.64-2.18.94-3.29.94Zm-166.95-.9c1.02.6,2.18.9,3.29.9,2.18,0,4.32-1.11,5.51-3.08,3.72-6.2,10.13-9.87,17.22-9.87s13.5,3.72,17.22,9.87c1.84,3.03,5.77,4.02,8.8,2.18,3.03-1.84,4.02-5.77,2.18-8.8-6.03-10.04-16.58-16.07-28.2-16.07s-22.18,5.98-28.2,16.07c-1.84,3.03-.86,6.97,2.18,8.8Z"/>
</svg>
